HIERARCHY
ROOT root
{
	OFFSET	0	13.1	24.9
	CHANNELS 6  Xposition Yposition Zposition Xrotation Yrotation Zrotation
	JOINT spine_1
	{
		OFFSET	0	9.99999	0
		CHANNELS 3  Xrotation Yrotation Zrotation
		JOINT spine_2
		{
			OFFSET	0	112	-10
			CHANNELS 3  Xrotation Yrotation Zrotation
			JOINT spine_3
			{
				OFFSET	0	206.5	19.3
				CHANNELS 3  Xrotation Yrotation Zrotation
				JOINT spine_4
				{
					OFFSET	0	110.4	14.6
					CHANNELS 3  Xrotation Yrotation Zrotation
					JOINT neck_1
					{
						OFFSET	0	71.8	-50.3
						CHANNELS 3  Xrotation Yrotation Zrotation
						JOINT neck_2
						{
							OFFSET	0	86.2	-25.8
							CHANNELS 3  Xrotation Yrotation Zrotation
							JOINT head_ee
							{
								OFFSET	0	179.8	-8.7
								CHANNELS 3  Xrotation Yrotation Zrotation
								End Site
								{
									OFFSET	1	0	0
								}
							}
						}
					}
					JOINT left_clavicle
					{
						OFFSET	-43.2	22.4	-70.8
						CHANNELS 3  Xrotation Yrotation Zrotation
						JOINT left_shoulder
						{
							OFFSET	-93.9	-5.79999	48.7
							CHANNELS 3  Xrotation Yrotation Zrotation
							JOINT left_elbow
							{
								OFFSET	-291.4	-30.8	15.2
								CHANNELS 3  Xrotation Yrotation Zrotation
								JOINT left_lowarm_twist
								{
									OFFSET	-110.7	-3.89999	13.6
									CHANNELS 3  Xrotation Yrotation Zrotation
									JOINT left_hand
									{
										OFFSET	-110.7	-3.89999	13.6
										CHANNELS 3  Xrotation Yrotation Zrotation
										JOINT left_ee
										{
											OFFSET	-80.8	-5.10001	12.1
											CHANNELS 3  Xrotation Yrotation Zrotation
											End Site
											{
												OFFSET	1	0	0
											}
										}
									}
								}
							}
						}
					}
					JOINT right_clavicle
					{
						OFFSET	43.2	22.4	-70.8
						CHANNELS 3  Xrotation Yrotation Zrotation
						JOINT right_shoulder
						{
							OFFSET	93.9	-5.79999	48.7
							CHANNELS 3  Xrotation Yrotation Zrotation
							JOINT right_elbow
							{
								OFFSET	291.4	-30.8	15.2
								CHANNELS 3  Xrotation Yrotation Zrotation
								JOINT right_lowarm_twist
								{
									OFFSET	110.7	-3.89999	13.6
									CHANNELS 3  Xrotation Yrotation Zrotation
									JOINT right_hand
									{
										OFFSET	110.7	-3.89999	13.6
										CHANNELS 3  Xrotation Yrotation Zrotation
										JOINT right_ee
										{
											OFFSET	80.8	-5.10001	12.1
											CHANNELS 3  Xrotation Yrotation Zrotation
											End Site
											{
												OFFSET	1	0	0
											}
										}
									}
								}
							}
						}
					}
				}
			}
		}
	}
	JOINT left_hip
	{
		OFFSET	-82.8	-127.5	0.300001
		CHANNELS 3  Xrotation Yrotation Zrotation
		JOINT left_knee
		{
			OFFSET	-28.2	-396.7	2.2
			CHANNELS 3  Xrotation Yrotation Zrotation
			JOINT left_ankle
			{
				OFFSET	-11.7	-411.3	35.4
				CHANNELS 3  Xrotation Yrotation Zrotation
				JOINT left_toes
				{
					OFFSET	0	-60	-88.6
					CHANNELS 3  Xrotation Yrotation Zrotation
					JOINT left_foot_ee
					{
						OFFSET	-22.5	-16.5	-42.2
						CHANNELS 3  Xrotation Yrotation Zrotation
						End Site
						{
							OFFSET	1	0	0
						}
					}
				}
			}
		}
	}
	JOINT right_hip
	{
		OFFSET	82.8	-127.5	0.300001
		CHANNELS 3  Xrotation Yrotation Zrotation
		JOINT right_knee
		{
			OFFSET	28.2	-396.7	2.2
			CHANNELS 3  Xrotation Yrotation Zrotation
			JOINT right_ankle
			{
				OFFSET	11.7	-411.3	35.4
				CHANNELS 3  Xrotation Yrotation Zrotation
				JOINT right_toes
				{
					OFFSET	0	-60	-88.6
					CHANNELS 3  Xrotation Yrotation Zrotation
					JOINT right_foot_ee
					{
						OFFSET	22.5	-16.5	-42.2
						CHANNELS 3  Xrotation Yrotation Zrotation
						End Site
						{
							OFFSET	1	0	0
						}
					}
				}
			}
		}
	}
}
MOTION
Frames: 15
Frame Time: 0.02
3177.02 653.055 -1669.29 -12.056865499 14.1643521206 7.30737418829 4.4236 -0.0962085 -0.0872165 4.4236 -0.0904637 -0.0931617 4.42375 -0.0771495 -0.104455 4.42375 -0.0926779 -0.0909593 2.72062 11.2808 0.475879 3.08926 19.3278 1.3039 -0.0 0.0 -0.0 -3.47965 14.3423 -3.96595 -24.9678 -29.0588 75.3408 0.515672 -14.3299 0.0648244 0.28557 0.0099742 -0.0351072 2.53639 9.13324 20.6062 -0.0 0.0 -0.0 10.9372 12.3921 -21.8664 1.17148 20.3431 -61.6162 2.2504 48.1002 -1.00441 38.9583 0.296191 4.87326 3.56451 0.266786 -24.4791 0.0 0.0 0.0 30.3631 -29.3784 -17.926 -7.94123 0.244591 1.19322 16.1119 26.9701 -2.37368 -32.6697 0.0 0.0 -0.0 0.0 -0.0 1.55195 18.1751 0.313174 -19.788 -0.298101 -3.00692 39.9806 -4.06936 4.85672 3.33741 -0.0 -0.0 0.0 0.0 0.0 
3156.33712327 655.789 -1688.02939995 -11.7644707019 13.4230445262 7.0840645295 4.38979 -0.141572 -0.164477 4.38979 -0.130819 -0.173153 4.39018 -0.1063 -0.189198 4.39016 -0.134846 -0.170035 3.33591 12.3513 4.5979 3.64157 17.5697 5.92273 -0.0 0.0 -0.0 -3.38684 16.9841 -3.27493 -21.1282 -28.952 73.8119 0.42679 -11.9379 0.0446237 0.667066 0.0230253 -0.0820829 1.98674 14.1908 18.5632 -0.0 0.0 -0.0 10.8294 11.5378 -21.6417 1.45617 19.5322 -63.3044 2.14246 46.6978 -0.924945 33.9213 0.0713989 4.27 2.51063 -5.01653 -18.9571 0.0 0.0 0.0 28.9235 -25.9065 -16.9854 -7.42584 0.23376 1.11488 2.50965 29.9396 -0.392608 -33.1032 0.0 0.0 -0.0 0.0 -0.0 1.80307 21.2841 -0.159516 -20.3541 -0.291261 -3.09351 38.3171 -13.4302 4.75805 8.34284 -0.0 -0.0 0.0 0.0 0.0 
3156.26414625 655.789 -1687.94853786 -11.7754486814 13.6419526981 7.13097951304 4.38979 -0.141572 -0.164477 4.38979 -0.130819 -0.173153 4.39018 -0.1063 -0.189198 4.39016 -0.134846 -0.170035 3.33591 12.3513 4.5979 3.64157 17.5697 5.92273 -0.0 0.0 -0.0 -3.38684 16.9841 -3.27493 -21.1282 -28.952 73.8119 0.42679 -11.9379 0.0446237 0.667066 0.0230253 -0.0820829 1.98674 14.1908 18.5632 -0.0 0.0 -0.0 10.8294 11.5378 -21.6417 1.45617 19.5322 -63.3044 2.14246 46.6978 -0.924945 33.9213 0.0713989 4.27 2.51063 -5.01653 -18.9571 0.0 0.0 0.0 28.9235 -25.9065 -16.9854 -7.42584 0.23376 1.11488 2.50965 29.9396 -0.392608 -33.1032 0.0 0.0 -0.0 0.0 -0.0 1.80307 21.2841 -0.159516 -20.3541 -0.291261 -3.09351 38.3171 -13.4302 4.75805 8.34284 -0.0 -0.0 0.0 0.0 0.0 
3132.95510384 658.522 -1716.27467118 -9.9059132814 13.1837397801 7.34102022369 4.0235 -0.0784268 -0.218363 4.02353 -0.0643729 -0.222911 4.02376 -0.0322868 -0.229762 4.02369 -0.0681682 -0.22178 4.04321 13.5525 2.83029 4.5084 21.0372 3.91315 -0.0 0.0 -0.0 -3.3443 14.9155 -3.62859 -24.2403 -29.881 73.4047 0.591028 -16.319 0.0847428 1.66317 0.0556242 -0.205133 2.71108 6.78004 21.0017 -0.0 0.0 -0.0 10.3636 10.8629 -20.6202 -2.62465 18.5687 -63.7625 2.3609 49.4606 -1.08753 36.0104 0.158178 4.52256 4.0563 0.0337419 -28.2592 0.0 0.0 0.0 28.6132 -26.8318 -16.4366 -15.1518 0.321871 2.29618 0.764202 28.0832 -0.118567 -29.3527 0.0 0.0 -0.0 0.0 -0.0 -0.508357 15.9357 0.860359 -21.5693 -0.27369 -3.27915 36.6033 -6.53121 4.55237 9.07009 -0.0 -0.0 0.0 0.0 0.0 
3132.58871106 658.522 -1715.9283422 -9.92431593439 13.6254924559 7.42040084349 4.0235 -0.0784268 -0.218363 4.02353 -0.0643729 -0.222911 4.02376 -0.0322868 -0.229762 4.02369 -0.0681682 -0.22178 4.04321 13.5525 2.83029 4.5084 21.0372 3.91315 -0.0 0.0 -0.0 -3.3443 14.9155 -3.62859 -24.2403 -29.881 73.4047 0.591028 -16.319 0.0847428 1.66317 0.0556242 -0.205133 2.71108 6.78004 21.0017 -0.0 0.0 -0.0 10.3636 10.8629 -20.6202 -2.62465 18.5687 -63.7625 2.3609 49.4606 -1.08753 36.0104 0.158178 4.52256 4.0563 0.0337419 -28.2592 0.0 0.0 0.0 28.6132 -26.8318 -16.4366 -15.1518 0.321871 2.29618 0.764202 28.0832 -0.118567 -29.3527 0.0 0.0 -0.0 0.0 -0.0 -0.508357 15.9357 0.860359 -21.5693 -0.27369 -3.27915 36.6033 -6.53121 4.55237 9.07009 -0.0 -0.0 0.0 0.0 0.0 
3087.76034079 665.662 -1760.12832031 -6.89723733699 11.7255483949 6.75354584054 3.24826 -0.0350191 -0.193081 3.24828 -0.0226619 -0.194918 3.24835 0.00771318 -0.19608 3.2483 -0.0233507 -0.194837 6.19833 15.0658 3.74123 6.80336 22.3393 4.7818 -0.0 0.0 -0.0 -1.49781 15.6228 -0.539895 -26.9842 -30.3843 68.5786 0.610516 -16.8271 0.0903015 4.3512 0.132857 -0.539775 2.03336 5.00101 15.6546 -0.0 0.0 -0.0 9.65606 9.75853 -19.0866 -6.58763 17.6471 -64.8186 2.40925 50.0331 -1.12443 32.6127 0.0217604 4.11027 3.56546 -5.6376 -26.7515 0.0 0.0 0.0 30.8308 -27.7107 -12.3052 -35.608 -0.211249 5.3737 -1.71026 30.1539 0.270383 -27.1756 0.0 0.0 -0.0 0.0 -0.0 -3.89339 16.8224 1.73172 -21.7395 -0.270915 -3.30511 33.2402 -16.6334 4.30088 16.5689 -0.0 -0.0 0.0 0.0 0.0 
3088.42280838 665.662 -1760.77456064 -6.88705484134 11.3121921408 6.70255482895 3.24826 -0.0350191 -0.193081 3.24828 -0.0226619 -0.194918 3.24835 0.00771318 -0.19608 3.2483 -0.0233507 -0.194837 6.19833 15.0658 3.74123 6.80336 22.3393 4.7818 -0.0 0.0 -0.0 -1.49781 15.6228 -0.539895 -26.9842 -30.3843 68.5786 0.610516 -16.8271 0.0903015 4.3512 0.132857 -0.539775 2.03336 5.00101 15.6546 -0.0 0.0 -0.0 9.65606 9.75853 -19.0866 -6.58763 17.6471 -64.8186 2.40925 50.0331 -1.12443 32.6127 0.0217604 4.11027 3.56546 -5.6376 -26.7515 0.0 0.0 0.0 30.8308 -27.7107 -12.3052 -35.608 -0.211249 5.3737 -1.71026 30.1539 0.270383 -27.1756 0.0 0.0 -0.0 0.0 -0.0 -3.89339 16.8224 1.73172 -21.7395 -0.270915 -3.30511 33.2402 -16.6334 4.30088 16.5689 -0.0 -0.0 0.0 0.0 0.0 
3089.12968817 665.662 -1761.45387734 -6.8766924277 10.8742985813 6.64869828517 3.24826 -0.0350191 -0.193081 3.24828 -0.0226619 -0.194918 3.24835 0.00771318 -0.19608 3.2483 -0.0233507 -0.194837 6.19833 15.0658 3.74123 6.80336 22.3393 4.7818 -0.0 0.0 -0.0 -1.49781 15.6228 -0.539895 -26.9842 -30.3843 68.5786 0.610516 -16.8271 0.0903015 4.3512 0.132857 -0.539775 2.03336 5.00101 15.6546 -0.0 0.0 -0.0 9.65606 9.75853 -19.0866 -6.58763 17.6471 -64.8186 2.40925 50.0331 -1.12443 32.6127 0.0217604 4.11027 3.56546 -5.6376 -26.7515 0.0 0.0 0.0 30.8308 -27.7107 -12.3052 -35.608 -0.211249 5.3737 -1.71026 30.1539 0.270383 -27.1756 0.0 0.0 -0.0 0.0 -0.0 -3.89339 16.8224 1.73172 -21.7395 -0.270915 -3.30511 33.2402 -16.6334 4.30088 16.5689 -0.0 -0.0 0.0 0.0 0.0 
3071.07001929 672.167 -1779.69930979 -6.26912905646 11.4550116551 6.39401847469 3.28067 -0.18639 -0.24485 3.28069 -0.170432 -0.256214 3.28145 -0.12898 -0.279387 3.28138 -0.171485 -0.25551 7.37441 16.4448 4.06593 8.13301 24.0839 5.05516 -0.0 0.0 -0.0 -0.919272 14.9534 0.285975 -25.9483 -30.2652 67.319 0.591481 -16.3309 0.0848702 4.7087 0.141943 -0.584538 1.65274 6.12377 13.4914 -0.0 0.0 -0.0 9.60601 10.3291 -18.9682 -10.7036 17.0647 -64.0009 2.46472 50.6734 -1.16714 32.1678 0.00571922 4.05572 2.93042 -7.28034 -22.7288 0.0 0.0 0.0 30.1774 -24.8619 -11.3901 -35.9999 -0.232087 5.43018 -0.961255 29.72 0.151291 -26.7032 0.0 0.0 -0.0 0.0 -0.0 -3.73058 19.672 1.52988 -25.7451 -0.183383 -3.91345 30.1162 -21.5516 4.04535 17.9108 -0.0 -0.0 0.0 0.0 0.0 
3050.60924996 673.395 -1804.41568695 -4.73013865072 10.2967553268 6.08640175451 2.93364 -0.223203 -0.363214 2.9337 -0.199638 -0.376681 2.935 -0.136866 -0.403747 2.93483 -0.198912 -0.377065 7.35858 16.4361 3.67147 8.14676 24.4286 4.58345 -0.0 0.0 -0.0 -0.031029 14.2352 1.62662 -26.921 -31.4363 64.5156 0.729081 -19.858 0.127627 5.65585 0.16466 -0.703394 1.5049 6.64674 12.6946 -0.0 0.0 -0.0 9.59544 10.1153 -18.949 -12.9182 16.1502 -63.5727 2.2863 48.5503 -1.03122 31.6225 -0.0133648 3.98869 3.53117 -7.31402 -27.0902 0.0 0.0 0.0 29.2117 -24.8291 -10.0006 -41.1964 -0.54463 6.16494 -2.34913 29.3556 0.369831 -27.9198 0.0 0.0 -0.0 0.0 -0.0 -4.71694 18.9356 1.69804 -28.226 -0.107916 -4.28668 30.1198 -24.2673 4.10366 19.5811 -0.0 -0.0 0.0 0.0 0.0 
3024.40496725 682.409 -1820.11598178 -3.62954604613 11.5089108459 4.61132620037 2.74826 -0.313933 -0.120295 2.74822 -0.305642 -0.140028 2.74898 -0.278722 -0.187985 2.74906 -0.304913 -0.141607 5.11776 15.6283 2.99803 5.8017 24.2419 4.03246 -0.0 0.0 -0.0 0.354168 14.5576 2.28507 -26.2101 -29.9778 63.6694 0.828535 -22.3147 0.163416 5.241 0.154952 -0.65129 0.74689 7.26507 7.90633 -0.0 0.0 -0.0 9.5451 10.6073 -18.8301 -14.3038 15.619 -63.5667 2.04246 45.33 -0.852988 28.6187 -0.106976 3.61649 2.80902 -11.2444 -23.21 0.0 0.0 0.0 24.6637 -24.733 -7.18304 -38.0945 -0.350011 5.72967 6.54383 29.6727 -1.01152 -26.9112 0.0 0.0 -0.0 0.0 -0.0 -2.44169 24.4994 0.568872 -35.1546 0.187623 -5.30817 25.5834 -28.6871 3.6658 21.0894 -0.0 -0.0 0.0 0.0 0.0 
3020.87626433 682.409 -1816.45982983 -3.64814389283 12.863042538 4.69942575715 2.74826 -0.313933 -0.120295 2.74822 -0.305642 -0.140028 2.74898 -0.278722 -0.187985 2.74906 -0.304913 -0.141607 5.11776 15.6283 2.99803 5.8017 24.2419 4.03246 -0.0 0.0 -0.0 0.354168 14.5576 2.28507 -26.2101 -29.9778 63.6694 0.828535 -22.3147 0.163416 5.241 0.154952 -0.65129 0.74689 7.26507 7.90633 -0.0 0.0 -0.0 9.5451 10.6073 -18.8301 -14.3038 15.619 -63.5667 2.04246 45.33 -0.852988 28.6187 -0.106976 3.61649 2.80902 -11.2444 -23.21 0.0 0.0 0.0 24.6637 -24.733 -7.18304 -38.0945 -0.350011 5.72967 6.54383 29.6727 -1.01152 -26.9112 0.0 0.0 -0.0 0.0 -0.0 -2.44169 24.4994 0.568872 -35.1546 0.187623 -5.30817 25.5834 -28.6871 3.6658 21.0894 -0.0 -0.0 0.0 0.0 0.0 
2999.51631292 688.224 -1820.26648185 -3.75035448582 15.035015307 4.37839459384 2.56702 -0.103593 -0.0725722 2.56702 -0.098765 -0.079017 2.56716 -0.0842612 -0.0943306 2.56716 -0.0981015 -0.0798392 4.44711 15.6609 3.45583 5.08481 24.0713 4.64285 -0.0 0.0 -0.0 1.0443 14.3934 3.38337 -24.3112 -28.8629 61.5523 0.882943 -23.6235 0.184649 5.28307 0.155954 -0.65657 -0.083065 6.60411 2.21245 -0.0 0.0 -0.0 9.07389 9.19817 -17.8352 -14.6301 13.2394 -63.8481 1.94533 43.935 -0.784745 26.3653 -0.16432 3.33436 2.00872 -15.7066 -19.1933 0.0 0.0 0.0 23.3166 -23.2537 -5.64666 -36.1152 -0.238291 5.44678 11.0272 30.0732 -1.68723 -26.6981 0.0 0.0 -0.0 0.0 -0.0 -0.461419 26.374 0.494154 -37.4008 0.309745 -5.63096 20.9376 -29.4813 3.07855 22.1962 -0.0 -0.0 0.0 0.0 0.0 
2973.67895836 691.393 -1821.41433922 -4.23082668233 15.8192538948 4.32573539929 2.82425 -0.0419382 -0.301925 2.8243 -0.022641 -0.303982 2.82441 0.0268251 -0.303641 2.82428 -0.0214657 -0.304067 4.68412 14.8821 3.18048 5.26754 22.8971 4.28157 -0.0 0.0 -0.0 1.44891 15.8995 4.15501 -21.5134 -25.4023 61.2524 1.0563 -27.6205 0.259658 3.9538 0.12243 -0.490081 -1.24609 6.41914 -5.46072 -0.0 0.0 -0.0 9.23577 9.06674 -18.1862 -15.0553 14.141 -62.9 1.53224 37.1969 -0.515636 23.4185 -0.222481 2.96247 1.85418 -16.5194 -18.4368 0.0 0.0 0.0 21.3878 -21.7664 -4.98394 -33.7632 -0.11837 5.10595 16.0137 29.7608 -2.40428 -25.5242 0.0 0.0 -0.0 0.0 -0.0 3.47379 33.4567 -0.938025 -41.9905 0.598232 -6.27465 18.1601 -29.6764 2.70336 23.0142 -0.0 -0.0 0.0 0.0 0.0 
2939.77017776 707.476 -1841.2164094 -2.25984672578 17.2455387859 2.23502937271 2.83319 0.0437471 0.108979 2.83319 0.0367239 0.111542 2.83326 0.0182168 0.11601 2.83325 0.0363098 0.111677 -0.694761 15.3782 4.00486 -0.301847 24.3802 5.95492 -0.0 0.0 -0.0 1.29202 16.108 3.924 -19.3072 -28.2082 56.7392 1.22853 -31.3225 0.344441 3.26678 0.103591 -0.404344 -1.72243 8.36879 -7.67655 -0.0 0.0 -0.0 9.14245 7.89201 -17.9993 -17.0722 10.9723 -64.5612 1.24263 31.6135 -0.351799 19.6872 -0.268565 2.48818 0.809222 -23.7128 -14.2061 0.0 0.0 0.0 14.1981 -15.4288 -3.30116 -25.8252 0.181201 3.92555 21.5092 29.1412 -3.14751 -26.456 0.0 0.0 -0.0 0.0 -0.0 10.5246 37.0468 -2.8022 -49.8596 1.20996 -7.31865 19.6356 -27.3465 2.86065 21.3249 -0.0 -0.0 0.0 0.0 0.0 
